<svg xmlns="http://www.w3.org/2000/svg" width="1600" height="420" viewBox="0 0 1600 420" role="img" aria-labelledby="title desc">
  <title id="title">Azazel-Fabric Contract banner</title>
  <desc id="desc">AZ-05 COVENANT, shared contracts and interoperability foundation</desc>
  <defs>
    <linearGradient id="bg" x1="0" y1="0" x2="1" y2="1">
      <stop offset="0" stop-color="#080d16"/>
      <stop offset="0.55" stop-color="#111522"/>
      <stop offset="1" stop-color="#171322"/>
    </linearGradient>
    <radialGradient id="glow" cx="80%" cy="48%" r="52%">
      <stop offset="0" stop-color="#aa82ff" stop-opacity="0.19"/>
      <stop offset="1" stop-color="#aa82ff" stop-opacity="0"/>
    </radialGradient>
    <pattern id="grid" width="40" height="40" patternUnits="userSpaceOnUse">
      <path d="M40 0H0V40" fill="none" stroke="#9d8bc8" stroke-opacity="0.08" stroke-width="1"/>
    </pattern>
  </defs>
  <rect width="1600" height="420" rx="24" fill="url(#bg)"/>
  <rect width="1600" height="420" rx="24" fill="url(#grid)"/>
  <rect width="1600" height="420" rx="24" fill="url(#glow)"/>
  <g transform="translate(1160 44)" fill="none" stroke="#b496ff">
    <circle cx="160" cy="166" r="132" stroke-opacity="0.20" stroke-width="2"/>
    <circle cx="160" cy="166" r="92" stroke-opacity="0.30" stroke-width="2" stroke-dasharray="7 9"/>
    <path d="M80 166h160M160 86v160" stroke-opacity="0.28" stroke-width="2"/>
    <g stroke-width="5">
      <path d="M100 125h52l25 41-25 41h-52l-25-41z"/>
      <path d="M220 125h-52l-25 41 25 41h52l25-41z"/>
    </g>
    <circle cx="160" cy="166" r="16" fill="#b496ff" stroke="none"/>
    <path d="M75 166H34m252 0h-41M160 81V38m0 256v-43" stroke-width="3" stroke-opacity="0.65"/>
    <circle cx="34" cy="166" r="7" fill="#b496ff" stroke="none"/><circle cx="286" cy="166" r="7" fill="#b496ff" stroke="none"/><circle cx="160" cy="38" r="7" fill="#b496ff" stroke="none"/><circle cx="160" cy="294" r="7" fill="#b496ff" stroke="none"/>
  </g>
  <g font-family="Inter,Segoe UI,Arial,sans-serif">
    <text x="92" y="82" fill="#b89bff" font-size="24" font-weight="700" letter-spacing="5">AZAZEL SYSTEM / AZ-05</text>
    <text x="88" y="176" fill="#f5f2fb" font-size="72" font-weight="800" letter-spacing="1">Azazel-Fabric</text>
    <text x="92" y="226" fill="#bcb4cf" font-size="29" font-weight="500" letter-spacing="1.5">SHARED CONTRACTS &amp; INTEROPERABILITY FOUNDATION</text>
    <line x1="92" y1="264" x2="870" y2="264" stroke="#aa82ff" stroke-opacity="0.48" stroke-width="2"/>
    <text x="92" y="315" fill="#e4dcf8" font-size="25" font-weight="700" letter-spacing="4">COVENANT</text>
    <text x="292" y="315" fill="#9187a8" font-size="20" letter-spacing="2">SCHEMA • STATE • AUDIT • EXCHANGE</text>
    <text x="92" y="365" fill="#9187a8" font-size="17" letter-spacing="1.6">ONE CONTRACT LANGUAGE. PRODUCT-LOCAL AUTHORITY.</text>
  </g>
  <rect x="1" y="1" width="1598" height="418" rx="23" fill="none" stroke="#b496ff" stroke-opacity="0.22" stroke-width="2"/>
</svg>
