<svg xmlns="http://www.w3.org/2000/svg" width="1600" height="500" viewBox="0 0 1600 500" role="img" aria-labelledby="title desc"><title id="title">Azazel-Fabric series banner</title><desc id="desc">AZ-05 COVENANT shared contracts and interoperability foundation</desc><defs><linearGradient id="bg" x1="0" y1="0" x2="1" y2="1"><stop offset="0" stop-color="#030508"/><stop offset="0.52" stop-color="#10070a"/><stop offset="1" stop-color="#05070a"/></linearGradient><radialGradient id="glow" cx="20%" cy="50%" r="55%"><stop offset="0" stop-color="#7a1118" stop-opacity=".48"/><stop offset="1" stop-color="#7a1118" stop-opacity="0"/></radialGradient><pattern id="grid" width="64" height="64" patternUnits="userSpaceOnUse"><path d="M64 0H0V64" fill="none" stroke="#fff" stroke-opacity=".025"/></pattern></defs><rect width="1600" height="500" fill="url(#bg)"/><rect width="1600" height="500" fill="url(#glow)"/><rect width="1600" height="500" fill="url(#grid)"/><path d="M0 406L1600 304" stroke="#8d171e" stroke-opacity=".45" stroke-width="3"/><path d="M0 438L1600 336" stroke="#8d171e" stroke-opacity=".16"/><rect x="18" y="18" width="1564" height="464" fill="none" stroke="#9e1c23" stroke-opacity=".45" stroke-width="2"/><g transform="translate(248 250)"><circle r="154" fill="#09080a" fill-opacity=".72" stroke="#8e171e" stroke-opacity=".6" stroke-width="3"/><circle r="116" fill="none" stroke="#9e1c23" stroke-opacity=".42" stroke-width="2"/><path d="M-45-78C-118-118-135-35-77 8M45-78C118-118 135-35 77 8" fill="none" stroke="#d03a42" stroke-width="13" stroke-linecap="round"/><path d="M0-74L74-20 49 92 0 126-49 92-74-20Z" fill="#13080b" stroke="#df454d" stroke-width="4"/><path d="M-34-2L0 28 34-2M0 28V85" fill="none" stroke="#df454d" stroke-width="8"/><text x="0" y="184" text-anchor="middle" fill="#c34a50" font-family="Arial,Helvetica,sans-serif" font-size="22" font-weight="700" letter-spacing="3">AZAZEL SYSTEM // AZ-05</text></g><g font-family="Arial,Helvetica,sans-serif"><text x="478" y="96" fill="#d8434b" font-size="24" font-weight="700" letter-spacing="4">CODENAME: COVENANT</text><text x="474" y="184" fill="#f2f2f2" font-size="72" font-weight="800">Azazel-Fabric</text><line x1="478" y1="220" x2="1492" y2="220" stroke="#a21d24" stroke-width="3"/><text x="478" y="271" fill="#d1d1d1" font-size="30" font-weight="700">SHARED CONTRACTS AND INTEROPERABILITY FOUNDATION</text><text x="478" y="329" fill="#969696" font-size="23" letter-spacing="2">SCHEMA • STATE • AUDIT • EXCHANGE</text><text x="478" y="404" fill="#c63a42" font-size="22" font-weight="700" letter-spacing="3">CYBER SCAPEGOAT GATEWAY</text><text x="478" y="440" fill="#777" font-size="18" letter-spacing="2">DETERMINISTIC • LOCAL-FIRST • AUDITABLE</text></g><g stroke="#d33c44" stroke-width="3" opacity=".8"><path d="M36 78V36H78M1522 36H1564V78M36 422V464H78M1522 464H1564V422"/></g></svg>